<svg width="128" height="128" viewBox="0 0 128 128" fill="none" xmlns="http://www.w3.org/2000/svg">
<g id="cookies-svgrepo-com 1" clip-path="url(#clip0_1_3)">
<g id="Cookie">
<path id="Vector" d="M119.908 62.09L113.823 63.307C111.798 63.712 109.762 62.6587 108.924 60.7715L102.405 46.105C101.854 44.8632 100.761 43.9453 99.4427 43.6155L96.047 42.7668C94.082 42.2755 92.7037 40.5102 92.7037 38.4847V14.9508C92.7037 13.851 92.293 12.7907 91.5522 11.9777L83.3537 2.98125C75.962 0.6405 67.994 -0.40375 59.71 0.14175C27.8712 2.23925 2.07899 28.1392 0.136239 59.9875C-2.13051 97.152 27.339 128 64.0137 128C98.9945 128 127.402 99.9313 127.986 65.0898L122.748 62.4705C121.87 62.0313 120.87 61.8975 119.908 62.09Z" fill="#FFE6A1"/>
<g id="Group">
<path id="Vector_2" d="M83.8757 108.138C83.4872 108.138 83.1045 108.116 82.7177 108.109C80.2927 110.829 76.7722 112.552 72.8412 112.552C67.0512 112.552 62.1422 108.829 60.343 103.652C52.4232 100.518 45.2797 95.8548 39.2762 90.0178C38.368 90.2915 37.4247 90.4825 36.4272 90.4825C30.9425 90.4825 26.4962 86.0363 26.4962 80.5515C26.4962 78.636 27.0642 76.8633 28.0037 75.3463C27.9365 75.226 27.8647 75.1093 27.798 74.9885C20.9092 74.5215 15.462 68.8003 15.462 61.793C15.462 57.6633 17.3535 53.977 20.3162 51.5485C20.0355 49.1158 19.8757 46.6463 19.8757 44.1378C19.8757 31.5505 23.5242 19.8223 29.8 9.92426C11.9035 21.2713 0.0137329 41.241 0.0137329 64C0.0137329 99.3463 28.6675 128 64.0137 128C86.7727 128 106.742 116.11 118.089 98.2138C108.191 104.49 96.4632 108.138 83.8757 108.138Z" fill="#FFD796"/>
<path id="Vector_3" d="M49.669 52.9655C52.7161 52.9655 55.1862 50.4953 55.1862 47.4482C55.1862 44.4012 52.7161 41.931 49.669 41.931C46.6219 41.931 44.1517 44.4012 44.1517 47.4482C44.1517 50.4953 46.6219 52.9655 49.669 52.9655Z" fill="#FFD796"/>
<path id="Vector_4" d="M108.152 89.3793C111.199 89.3793 113.669 86.9091 113.669 83.862C113.669 80.8149 111.199 78.3448 108.152 78.3448C105.105 78.3448 102.634 80.8149 102.634 83.862C102.634 86.9091 105.105 89.3793 108.152 89.3793Z" fill="#FFD796"/>
<path id="Vector_5" d="M57.9447 89.3793C60.0776 89.3793 61.8067 87.6502 61.8067 85.5173C61.8067 83.3843 60.0776 81.6553 57.9447 81.6553C55.8118 81.6553 54.0827 83.3843 54.0827 85.5173C54.0827 87.6502 55.8118 89.3793 57.9447 89.3793Z" fill="#FFD796"/>
<path id="Vector_6" d="M87.738 54.0688C89.8709 54.0688 91.6 52.3397 91.6 50.2068C91.6 48.0738 89.8709 46.3448 87.738 46.3448C85.6051 46.3448 83.876 48.0738 83.876 50.2068C83.876 52.3397 85.6051 54.0688 87.738 54.0688Z" fill="#FFD796"/>
<path id="Vector_7" d="M72.2897 19.862C74.4227 19.862 76.1517 18.1329 76.1517 16C76.1517 13.8671 74.4227 12.138 72.2897 12.138C70.1568 12.138 68.4277 13.8671 68.4277 16C68.4277 18.1329 70.1568 19.862 72.2897 19.862Z" fill="#FFD796"/>
</g>
<g id="Group_2">
<path id="Vector_8" d="M60.8022 56.8465L58.251 61.0988C56.726 63.6403 58.09 66.9328 60.9652 67.6515L68.5592 69.55C70.9242 70.1413 73.3207 68.7035 73.9117 66.3385L74.7805 62.8635C74.9562 62.1605 74.9562 61.4255 74.7805 60.7225L73.862 57.0483C73.2907 54.7625 71.0247 53.3285 68.7145 53.7905L63.7215 54.789C62.502 55.0333 61.4422 55.7803 60.8022 56.8465Z" fill="#B97850"/>
<path id="Vector_9" d="M73.5405 84.1683L70.8798 88.6028C69.557 90.8075 70.391 93.6718 72.6905 94.8215L81.161 99.0568C83.6865 100.32 86.732 98.9188 87.417 96.1795L88.2895 92.6895L89.3093 88.6098C89.944 86.0708 88.2425 83.54 85.6513 83.1697L77.949 82.0693C76.1915 81.8183 74.454 82.6455 73.5405 84.1683Z" fill="#B97850"/>
<path id="Vector_10" d="M27.1032 57.8395L23.856 63.2518C22.814 64.9885 23.0877 67.2115 24.5197 68.6438L29.6302 73.7545C31.4905 75.6148 34.5545 75.445 36.198 73.3907L40.5792 67.914C41.4397 66.8385 41.7487 65.4228 41.4145 64.0863L40.4152 60.0893C40.0015 58.4343 38.6715 57.1663 36.999 56.8315L31.7535 55.7825C29.9245 55.4165 28.063 56.24 27.1032 57.8395Z" fill="#B97850"/>
<path id="Vector_11" d="M45.0727 22.0048L42.5687 26.1783C41.116 28.5995 42.279 31.7435 44.9577 32.6365L50.3915 34.4478C51.9775 34.9763 53.726 34.5635 54.9082 33.3815L57.833 30.4568C58.9292 29.3605 59.37 27.7693 58.994 26.2653L58.229 23.2055C57.7377 21.2403 55.9722 19.8618 53.9467 19.8618H48.8572C47.3072 19.862 45.8705 20.6755 45.0727 22.0048Z" fill="#B97850"/>
<path id="Vector_12" d="M98.379 56.1175L95.8242 58.6723C94.1007 60.3958 94.1007 63.1905 95.8242 64.9143L97.0745 66.1645C98.418 67.508 100.47 67.841 102.169 66.9913L109.399 63.3768C111.249 62.4515 112.209 60.3655 111.707 58.3585L111.379 57.0488C110.808 54.763 108.542 53.329 106.232 53.791L100.635 54.9105C99.78 55.081 98.9952 55.5013 98.379 56.1175Z" fill="#B97850"/>
<path id="Vector_13" d="M81.9672 24.614L79.0359 28.5225C77.9592 29.958 77.8589 31.903 78.7822 33.4418L81.4944 37.962C82.7909 40.123 85.6307 40.7615 87.7274 39.3638L93.2349 35.692C95.3434 34.2865 95.8379 31.3983 94.3177 29.3713L91.3237 25.3793C90.7849 24.661 90.0402 24.124 89.1884 23.8403L86.8939 23.0753C85.0914 22.474 83.1069 23.094 81.9672 24.614Z" fill="#B97850"/>
<path id="Vector_14" d="M44.1972 94.3463L41.3152 97.9488C39.465 100.262 40.3727 103.704 43.1227 104.804L46.994 106.353C48.0465 106.774 49.2202 106.774 50.2725 106.353L54.617 104.615C57.22 103.574 58.2055 100.401 56.6505 98.0683L55.9042 96.949C55.478 96.3098 54.8927 95.7933 54.2057 95.4495L49.6182 93.1558C47.756 92.225 45.4972 92.7213 44.1972 94.3463Z" fill="#B97850"/>
</g>
<g id="Group_3">
<path id="Vector_15" d="M35.107 73.2303L29.9965 68.1198C28.5645 66.6878 28.2905 64.4645 29.3327 62.728L32.58 57.3158C32.857 56.8543 33.223 56.4795 33.6277 56.1575L31.7537 55.783C29.9247 55.4173 28.063 56.2408 27.1032 57.84L23.856 63.2523C22.814 64.989 23.0877 67.212 24.5197 68.6443L29.6302 73.7548C31.3545 75.479 34.099 75.4375 35.8015 73.7895C35.5575 73.6278 35.3225 73.446 35.107 73.2303Z" fill="#A5694B"/>
<path id="Vector_16" d="M54.8119 32.8765L49.3782 31.0655C46.6997 30.1725 45.5362 27.0285 46.9892 24.6073L49.4932 20.4338C49.6204 20.2213 49.7887 20.0465 49.9464 19.862H48.8569C47.3067 19.862 45.8699 20.6755 45.0722 22.005L42.5682 26.1782C41.1152 28.5995 42.2782 31.7435 44.9572 32.6365L50.3909 34.4478C51.9769 34.9763 53.7254 34.5635 54.9077 33.3815L55.3189 32.9702C55.1499 32.9352 54.9784 32.932 54.8119 32.8765Z" fill="#A5694B"/>
<path id="Vector_17" d="M72.747 68.281L65.153 66.3825C62.2775 65.6635 60.9135 62.3712 62.4387 59.8297L64.99 55.5775C65.2937 55.0712 65.6972 54.644 66.1625 54.3012L63.7215 54.7895C62.5022 55.0332 61.442 55.7805 60.8022 56.847L58.251 61.0992C56.726 63.6407 58.09 66.9332 60.9652 67.652L68.5592 69.5505C70.159 69.9505 71.759 69.4075 72.8187 68.2917C72.7947 68.2857 72.771 68.287 72.747 68.281Z" fill="#A5694B"/>
<path id="Vector_18" d="M85.6172 37.5802L82.9049 33.06C81.9817 31.5213 82.082 29.5768 83.1587 28.1408L86.0899 24.2325C86.4109 23.8043 86.8095 23.4688 87.2415 23.1905L86.8937 23.0748C85.0912 22.474 83.1067 23.094 81.9667 24.6138L79.0357 28.522C77.959 29.9577 77.8587 31.9025 78.7819 33.4412L81.4942 37.9615C82.7864 40.1152 85.6107 40.754 87.7052 39.3747C86.866 39.0255 86.1229 38.423 85.6172 37.5802Z" fill="#A5694B"/>
<path id="Vector_19" d="M100.617 65.8705C98.893 64.1467 98.893 61.3522 100.617 59.6285L103.171 57.0737C103.787 56.4577 104.572 56.0375 105.427 55.8667L110.138 54.9245C109.13 53.9665 107.691 53.4987 106.232 53.7907L100.634 54.9102C99.78 55.0812 98.9952 55.5012 98.379 56.1172L95.8242 58.672C94.1007 60.3957 94.1007 63.1902 95.8242 64.914L97.0745 66.1643C98.3347 67.4245 100.21 67.7547 101.841 67.095L100.617 65.8705Z" fill="#A5694B"/>
<path id="Vector_20" d="M78.1582 94.4512C75.8587 93.3015 75.0244 90.4372 76.3474 88.2325L79.0082 83.7982C79.3572 83.217 79.8504 82.7762 80.3944 82.419L77.9494 82.0697C76.1914 81.8185 74.4542 82.6455 73.5407 84.1682L70.8799 88.6027C69.5572 90.8075 70.3912 93.6717 72.6907 94.8215L81.1612 99.0567C82.8494 99.901 84.7547 99.5365 86.0469 98.396L78.1582 94.4512Z" fill="#A5694B"/>
<path id="Vector_21" d="M51.4077 105.615L47.5365 104.066C44.7867 102.967 43.879 99.5237 45.729 97.211L48.611 93.6085C48.794 93.3797 48.9995 93.1797 49.2165 92.9967C47.44 92.3165 45.406 92.835 44.1972 94.3462L41.3152 97.9487C39.465 100.261 40.3727 103.704 43.1227 104.804L46.994 106.353C48.0465 106.774 49.2202 106.774 50.2725 106.353L51.8167 105.735C51.68 105.695 51.5407 105.668 51.4077 105.615Z" fill="#A5694B"/>
</g>
<path id="Vector_22" d="M17.6663 90.4805C17.3355 90.4805 16.998 90.4052 16.6815 90.2477C15.591 89.7025 15.149 88.3772 15.6945 87.2867L17.9015 82.873C18.447 81.7825 19.769 81.345 20.8625 81.886C21.953 82.4315 22.395 83.7565 21.8495 84.847L19.6425 89.2607C19.2558 90.0342 18.4768 90.4805 17.6663 90.4805Z" fill="#C98850"/>
<path id="Vector_23" d="M57.393 119.172H55.186C53.9673 119.172 52.979 118.185 52.979 116.965C52.979 115.745 53.9673 114.758 55.186 114.758H57.393C58.6118 114.758 59.6 115.745 59.6 116.965C59.6 118.185 58.6118 119.172 57.393 119.172Z" fill="#925F4A"/>
<path id="Vector_24" d="M48.5632 77.2412C48.2325 77.2412 47.895 77.166 47.5785 77.0085C46.488 76.463 46.046 75.1377 46.5915 74.0475L48.7985 69.6337C49.3427 68.5455 50.665 68.1057 51.7595 68.6467C52.85 69.1922 53.292 70.5172 52.7465 71.6077L50.5395 76.0215C50.1527 76.7952 49.3735 77.2412 48.5632 77.2412Z" fill="#C98850"/>
<g id="Group_4">
<path id="Vector_25" d="M35.322 41.931C34.9913 41.931 34.6538 41.8557 34.3373 41.6982L29.9235 39.4912C28.833 38.9457 28.391 37.6207 28.9365 36.5302C29.4808 35.442 30.804 35 31.8975 35.5432L36.3113 37.75C37.4018 38.2955 37.8438 39.6205 37.2983 40.711C36.9115 41.4847 36.1323 41.931 35.322 41.931Z" fill="#925F4A"/>
<path id="Vector_26" d="M61.807 11.0342H57.3933C56.1745 11.0342 55.1863 10.0472 55.1863 8.82724C55.1863 7.60724 56.1745 6.62024 57.3933 6.62024H61.807C63.0258 6.62024 64.014 7.60724 64.014 8.82724C64.014 10.0472 63.0258 11.0342 61.807 11.0342Z" fill="#925F4A"/>
</g>
<path id="Vector_27" d="M70.6367 44.1377C69.8262 44.1377 69.0472 43.6917 68.6605 42.918L66.4535 38.5042C65.908 37.4137 66.35 36.0882 67.4405 35.5432C68.5332 35 69.8575 35.442 70.4015 36.5302L72.6085 40.944C73.154 42.0345 72.712 43.36 71.6215 43.905C71.3045 44.0625 70.9675 44.1377 70.6367 44.1377Z" fill="#C98850"/>
<g id="Group_5">
<path id="Vector_28" d="M10.0715 54.9443C9.77475 54.798 9.5055 54.5813 9.29075 54.3C8.55325 53.329 8.743 51.9448 9.71425 51.2075L13.6447 48.2235C14.615 47.4858 15.9982 47.6773 16.7372 48.647C17.4747 49.618 17.285 51.0023 16.3137 51.7395L12.3835 54.7233C11.6942 55.2463 10.7982 55.3023 10.0715 54.9443Z" fill="#925F4A"/>
<path id="Vector_29" d="M92.7035 79.4483C92.1388 79.4483 91.574 79.2328 91.1433 78.8018L86.7295 74.388C85.8675 73.526 85.8675 72.1293 86.7295 71.2673C87.5915 70.4053 88.9883 70.4053 89.8503 71.2673L94.264 75.681C95.126 76.543 95.126 77.9398 94.264 78.8018C93.8328 79.2328 93.268 79.4483 92.7035 79.4483Z" fill="#925F4A"/>
</g>
<path id="Vector_30" d="M97.1173 101.517C96.5525 101.517 95.9878 101.302 95.557 100.871C94.695 100.009 94.695 98.612 95.557 97.75L97.764 95.543C98.626 94.681 100.023 94.681 100.885 95.543C101.747 96.405 101.747 97.8017 100.885 98.6637L98.6778 100.871C98.2465 101.302 97.682 101.517 97.1173 101.517Z" fill="#C98850"/>
</g>
<g id="Crumbs">
<g id="Group_6">
<path id="Vector_31" d="M101.531 8.82751V14.3955C101.531 15.957 103.108 17.0245 104.558 16.4445L111.178 13.7963C112.016 13.461 112.566 12.6495 112.566 11.7473V8.82751C112.566 7.60876 111.577 6.62051 110.359 6.62051H103.738C102.519 6.62051 101.531 7.60876 101.531 8.82751Z" fill="#FFE6A1"/>
<path id="Vector_32" d="M106.249 26.226L104.841 36.0845C104.51 38.4035 106.048 40.5775 108.345 41.0368L112.387 41.845C114.141 42.196 115.933 41.4535 116.925 39.9653L118.445 37.6853C119.232 36.504 119.404 35.0163 118.905 33.6873L114.301 21.4095C113.728 19.8825 111.769 19.4583 110.616 20.6115L107.498 23.7293C106.823 24.4045 106.385 25.2808 106.249 26.226Z" fill="#FFE6A1"/>
</g>
<g id="Group_7">
<path id="Vector_33" d="M117.313 37.9248L113.272 37.1165C110.975 36.657 109.437 34.483 109.768 32.1643L111.176 22.306C111.302 21.4268 111.712 20.6238 112.308 19.9703C111.709 19.94 111.094 20.1328 110.616 20.6108L107.498 23.7288C106.823 24.404 106.384 25.2803 106.25 26.2255L104.841 36.0838C104.51 38.403 106.048 40.5768 108.345 41.036L112.387 41.8443C114.141 42.1948 115.933 41.4528 116.925 39.9645L118.255 37.97C117.942 37.9763 117.629 37.988 117.313 37.9248Z" fill="#FFD796"/>
<path id="Vector_34" d="M108.971 12.0305C107.522 12.6103 105.945 11.5428 105.945 9.98151V6.62051H103.738C102.519 6.62051 101.531 7.60876 101.531 8.82751V14.3955C101.531 15.957 103.108 17.0245 104.557 16.4445L111.178 13.7963C112.016 13.461 112.565 12.6498 112.565 11.7473V10.593L108.971 12.0305Z" fill="#FFD796"/>
<path id="Vector_35" d="M118.079 48.1308L116.775 50.7398C116.464 51.361 116.464 52.0923 116.775 52.7135L117.37 53.9045C117.964 55.0918 119.464 55.4903 120.568 54.754L124.126 52.3823C124.74 51.9728 125.109 51.2838 125.109 50.546V48.1683C125.109 46.662 123.633 45.5983 122.204 46.0748L119.355 47.0243C118.8 47.209 118.341 47.607 118.079 48.1308Z" fill="#FFD796"/>
</g>
</g>
</g>
<defs>
<clipPath id="clip0_1_3">
<rect width="128" height="128" fill="white"/>
</clipPath>
</defs>
</svg>
